<svg color-interpolation-filters="sRGB" preserveAspectRatio="xMidYMid meet" viewBox="53.5335 97.0335 232.5 57" xmlns:xlink="http://www.w3.org/1999/xlink" xmlns="http://www.w3.org/2000/svg" version="1.0" data-v-0dd9719b="" width="232.5" height="57">
    <g transform="translate(54.832496643066406,99.43413162231445)" fill="#ffffff" data-v-0dd9719b="">
        <g opacity="1" transform="matrix(1,0,0,1,0,0)">
            <g>
                <rect height="46.081728859344764" width="34.799999999999976" y="0" x="0" stroke-width="2" fill-opacity="0" fill="#ffffff"/> <svg style="overflow: visible;" height="46.081728859344764" width="34.799999999999976" y="0" x="0" filter="url(#colors1208038752)"><svg xml:space="preserve" viewBox="193.55531311035156 90.33049011230469 636.8796997070312 843.3495483398438" y="0px" x="0px" version="1.1" xmlns:xlink="http://www.w3.org/1999/xlink" xmlns="http://www.w3.org/2000/svg">
                        <g>
                            <g>
                                <path d="M297.11,894.93c-7.98,0-16.22-4.51-21.86-12.21c-3.37-4.6-5.52-9.54-7.61-14.31c-0.91-2.1-1.78-4.07-2.72-5.98    c-2.1-4.23-5.59-9.6-10.3-11.14c-5.23-1.71-11.33,1.45-15.06,5.34c-2.45,2.56-4.48,5.69-6.82,9.3c-0.94,1.45-1.9,2.93-2.91,4.42    c-2.05,3.03-3.97,5.52-6.01,7.85c-2.12,2.4-5.53,3.2-8.49,1.97c-2.96-1.22-4.82-4.19-4.62-7.39    c3.32-54.06,5.01-109.32,5.01-164.26c0-19.96-0.81-36.96-1.52-51.97c-1.85-38.82-3.18-66.87,11.88-102.84    c6.56-15.67,18.6-30.88,30.68-38.73c20.23-13.14,49.79-11.04,70.29,4.98c18,14.06,29.17,37.79,29.89,63.48    c0.47,16.47-3.21,33.25-7.11,51.01c-1.55,7.05-3.14,14.33-4.5,21.73c0,0,0,0,0,0c-2.58,14.03-5.06,26.77-7.46,39.09    c-10.16,52.14-17.5,89.8-17.5,149.81c0,1.97,0.11,4.54,0.22,7.26c0.3,7.15,0.65,15.25-0.48,21.02    c-1.17,5.97-4.06,11.42-8.15,15.35c-3.08,2.98-6.83,5-10.82,5.82C299.81,894.8,298.46,894.93,297.11,894.93z M251.63,835.83    c2.62,0,5.2,0.39,7.66,1.2c7.74,2.54,14.16,8.84,19.07,18.73c1.11,2.23,2.09,4.47,3.03,6.64c1.84,4.21,3.57,8.19,5.96,11.45    c2.5,3.42,6.96,6.74,10.81,5.98c1.17-0.24,2.31-0.88,3.37-1.91c1.85-1.78,3.29-4.56,3.85-7.45c0.79-4.03,0.47-11.5,0.22-17.5    c-0.12-2.89-0.24-5.61-0.24-7.9c0-61.46,7.84-101.71,17.77-152.68c2.39-12.28,4.87-24.98,7.43-38.93l0,0    c1.4-7.64,3.03-15.06,4.6-22.23c3.69-16.84,7.18-32.74,6.77-47.37c-0.59-21.27-9.61-40.74-24.13-52.08    c-15.61-12.2-37.85-13.98-52.88-4.22c-9.57,6.22-19.62,19.06-25.01,31.94c-13.75,32.84-12.55,58.1-10.73,96.33    c0.72,15.17,1.54,32.37,1.54,52.68c0,46.57-1.2,93.38-3.58,139.5c0.51-0.6,1.04-1.18,1.59-1.76    C235.16,839.54,243.57,835.83,251.63,835.83z">
                                </path>
                            </g>
                            <g>
                                <path d="M305.98,916.27c-4.23,3.37-9.97,3.94-15.36,4.39c-20.71,1.7-41.42,3.4-62.13,5.1c-5.51,0.45-11.19,0.89-16.47-0.75    c-5.29-1.64-10.16-5.87-10.83-11.36c-0.53-4.29,0.59-9.05,3.48-12.26c7-7.78,15.37-11.02,18.97-35.26    c3.63-5.33,6.47-10.47,10.51-14.69c5.82-6.08,14.8-9.9,22.81-7.28c6.81,2.23,11.49,8.51,14.68,14.94    c3.19,6.43,5.42,13.4,9.66,19.19s11.29,10.31,18.33,8.9c2.74-0.56,5.14-1.96,7.12-3.88c2.35,5.39,4.69,10.9,5.18,16.75    C312.43,906.04,310.67,912.53,305.98,916.27z">
                                </path>
                                <path d="M220.79,933.68c-3.57,0-7.28-0.35-11-1.51c-8.77-2.72-15.08-9.63-16.05-17.61c-0.83-6.74,1.17-13.54,5.35-18.19    c1.49-1.66,2.97-3.07,4.41-4.44c5.46-5.21,10.17-9.72,12.72-26.9c0.17-1.12,0.58-2.19,1.22-3.12c0.95-1.39,1.84-2.77,2.72-4.13    c2.52-3.9,5.14-7.94,8.57-11.53c8.51-8.89,20.5-12.51,30.56-9.22c7.74,2.54,14.16,8.84,19.07,18.73c1.11,2.23,2.09,4.47,3.03,6.64    c1.84,4.21,3.57,8.19,5.96,11.45c2.5,3.42,6.96,6.74,10.81,5.98c1.17-0.24,2.31-0.88,3.37-1.91c1.77-1.71,4.26-2.45,6.67-1.97    c2.41,0.48,4.44,2.11,5.42,4.36c2.3,5.28,5.17,11.86,5.78,19.12c0.77,9.23-2.5,17.71-8.75,22.7c0,0,0,0,0,0    c-6.14,4.89-13.81,5.53-19.41,6l-62.14,5.1C226.47,933.45,223.68,933.68,220.79,933.68z M230.79,868.93    c-3.42,20.93-10.59,27.78-16.93,33.84c-1.29,1.23-2.51,2.4-3.62,3.63c-1.26,1.4-1.91,3.94-1.61,6.33c0.24,2,2.65,4.2,5.61,5.11    c3.96,1.23,8.88,0.83,13.64,0.44l62.13-5.1c4.94-0.41,8.91-0.88,11.3-2.78c2.26-1.8,3.49-5.62,3.15-9.72    c-0.18-2.17-0.74-4.41-1.47-6.62c-0.61,0.19-1.23,0.34-1.85,0.47c-9.14,1.83-19.29-2.81-25.88-11.82    c-3.37-4.6-5.52-9.54-7.61-14.31c-0.91-2.09-1.78-4.07-2.72-5.98c-2.1-4.23-5.59-9.6-10.3-11.14c-5.23-1.71-11.33,1.45-15.06,5.34    c-2.45,2.56-4.48,5.69-6.82,9.3C232.11,866.92,231.46,867.92,230.79,868.93z">
                                </path>
                            </g>
                            <g>
                                <path d="M803.03,908.94c-3.49,2.75-8.01,3.77-12.38,4.56c-27.79,5-58.43,3.09-86.59,1.06c0.93-1.14,1.72-2.46,2.36-3.95    c2.98-6.98,4.46-14.88,9.55-20.51c7.35-8.12,20.8-9.85,25.88-19.54c1.5-2.88,2.05-6.1,2.3-9.37    c17.39,13.43,38.64,15.23,56.63,26.74c2.43,1.56,5.42,4.14,6.35,5.97C810.4,900.36,806.53,906.2,803.03,908.94z">
                                </path>
                                <path d="M749.72,924.17c-16.7,0-32.79-1.16-46.19-2.13c-2.79-0.2-5.24-1.94-6.35-4.51s-0.69-5.54,1.07-7.71    c0.49-0.6,0.92-1.33,1.28-2.17c0.77-1.8,1.45-3.75,2.17-5.81c1.92-5.47,4.09-11.67,8.7-16.77c4.1-4.52,9.34-7.31,13.96-9.77    c4.86-2.58,9.05-4.82,10.84-8.22c0.78-1.5,1.24-3.5,1.46-6.46c0.21-2.75,1.91-5.16,4.43-6.28c2.52-1.12,5.45-0.77,7.63,0.92    c8.55,6.6,18.33,10.16,28.68,13.93c9.1,3.31,18.52,6.74,27.4,12.43c1.12,0.72,6.76,4.49,8.99,8.89    c4.89,9.66,0.43,19.17-6.15,24.33c-4.88,3.84-10.65,5.13-15.68,6.04C778.3,923.34,763.79,924.17,749.72,924.17z M715.49,907.84    c22.4,1.49,49.84,2.59,73.83-1.73c3.39-0.61,6.89-1.36,9.07-3.07c0.01-0.01,0.01-0.01,0.02-0.02c0.58-0.45,3.37-2.83,2.1-5.6    c-0.48-0.64-2.11-2.12-3.78-3.19c-7.48-4.79-15.72-7.79-24.44-10.96c-7.77-2.83-15.73-5.72-23.4-10.02    c-0.12,0.26-0.25,0.51-0.38,0.77c-3.95,7.53-10.93,11.24-17.09,14.52c-3.88,2.07-7.55,4.02-9.88,6.59    c-2.58,2.86-4.08,7.14-5.67,11.67C715.74,907.15,715.61,907.5,715.49,907.84z">
                                </path>
                            </g>
                            <g>
                                <path d="M692.95,927.18c-2.94,0-6-0.53-9.06-1.62c-3.56-1.27-6.77-3.6-9.28-6.74c-5.6-6.98-6.59-15.36-7.37-22.09    c-1.62-13.86-3.14-26.69-4.65-39.46c-1.72-14.57-3.44-29.05-5.28-44.86c-1.36-11.63-2.78-23.67-8.15-33.54    c-1.1-2.02-2.4-4.02-3.79-6.15c-2.84-4.37-5.78-8.88-7.54-14.4c-4.54-14.2,0.58-31.32,13.69-45.8c4.77-5.26,10.05-9.86,15.17-14.3    c5.57-4.84,10.82-9.4,15.29-14.64c5.16-6.05,8.58-12.92,9.65-19.35c0.86-5.11,4.49-9.17,9.48-10.61    c5.06-1.46,10.36,0.07,13.85,3.99c15.17,17.09,30.11,36.1,36.69,59.34c5.52,19.47,4.61,40.21,3.82,58.51l0,0l-3.63,82.9    c-0.05,1.12-0.11,2.28-0.21,3.49c-0.25,3.33-0.85,7.81-3.12,12.18c-3.95,7.53-10.93,11.24-17.09,14.52    c-3.88,2.07-7.55,4.02-9.88,6.59c-2.58,2.86-4.08,7.14-5.67,11.67c-0.77,2.2-1.57,4.48-2.54,6.75c-0.92,2.14-2.07,4.06-3.44,5.75    C705.69,924.45,699.62,927.18,692.95,927.18z M705.77,669.87c-1.96,8.07-6.28,16.29-12.38,23.44    c-5.19,6.09-11.12,11.24-16.86,16.23c-5,4.34-9.72,8.45-13.89,13.04c-3.55,3.92-14.8,17.76-10.51,31.17    c1.15,3.59,3.42,7.08,5.82,10.78c1.48,2.27,3.01,4.62,4.39,7.16c6.76,12.42,8.41,26.53,9.87,38.97    c1.84,15.81,3.56,30.28,5.28,44.84c1.51,12.78,3.03,25.62,4.65,39.48c0.65,5.57,1.27,10.83,4.18,14.46    c0.77,0.96,1.69,1.66,2.61,1.99c2.83,1.01,6.75,1.55,9.3-1.59c0.5-0.61,0.93-1.34,1.29-2.18c0.77-1.8,1.45-3.75,2.17-5.81    c1.92-5.47,4.09-11.67,8.7-16.77c4.1-4.52,9.34-7.31,13.96-9.77c4.86-2.58,9.05-4.82,10.84-8.22c0.78-1.5,1.24-3.5,1.46-6.46    c0.09-1.04,0.13-2.01,0.18-2.97l0.03-0.57l3.6-82.27c0.79-18.01,1.6-36.63-3.26-53.77C731.73,701.68,719.03,685,705.77,669.87z">
                                </path>
                            </g>
                            <g>
                                <path d="M688.1,687.79c-14.61-21.9-32.19-40.02-50.81-59.22l-1-1.03c-29.77-30.7-55.19-65.24-75.64-102.77    c-26.11,11.42-61.15,8.86-89.49,5.15c-30.94-4.05-54.6-9.09-83.99-22.9c-20.54-9.65-42.16-24.74-59.14-41.13    c-16.48,17.23-32.22,35.44-46.85,54.21l-11.83-9.22c16.53-21.21,34.45-41.71,53.24-60.94c1.41-1.44,3.35-2.26,5.36-2.26    c0.01,0,0.03,0,0.04,0c2.03,0.01,3.98,0.85,5.38,2.32c16.43,17.22,38.93,33.46,60.17,43.45c27.76,13.05,49.37,17.66,79.55,21.61    c28.58,3.74,64.29,6.35,86.96-6.76c1.77-1.02,3.88-1.28,5.84-0.71c1.96,0.57,3.61,1.91,4.56,3.72    c20.34,38.77,46.11,74.36,76.59,105.79l1,1.03c19.11,19.7,37.15,38.3,52.52,61.34L688.1,687.79z">
                                </path>
                            </g>
                            <g>
                                <path d="M333.79,459.91l-11.65-9.45c27.76-34.2,34.93-50.97,44.01-72.2c3.39-7.93,7.24-16.92,12.47-27.54l13.45,6.63    c-5.06,10.25-8.65,18.66-12.13,26.8C370.4,406.46,362.87,424.08,333.79,459.91z">
                                </path>
                            </g>
                            <g>
                                <path d="M656.33,804.41c-2.48-13.2-12.05-25.09-22.03-35.97c-10.06-10.97-22.44-20.25-34.41-29.23    c-12.33-9.24-22.81-16.39-32.95-23.31c-15.06-10.27-29.29-19.98-48.32-35.52c-6.42-5.24-12.44-10.69-18.81-16.46    c-12.37-11.19-25.16-22.77-42.43-34.19c-17.66-11.67-29.33-13.3-48.02-6.72c-24.73,8.72-41.06,14.48-66.96,42.54l-11.02-10.17    c28.42-30.8,48.09-37.73,73-46.51c23.12-8.15,39.73-5.89,61.28,8.35c18.23,12.05,32.04,24.55,44.23,35.58    c6.23,5.63,12.1,10.96,18.23,15.96c18.52,15.13,32.49,24.66,47.28,34.75c10.27,7.01,20.9,14.25,33.49,23.7    c12.52,9.39,25.47,19.1,36.47,31.1c11.48,12.52,22.54,26.44,25.71,43.34L656.33,804.41z">
                                </path>
                            </g>
                            <g>
                                <path d="M542.32,179.26c-5.77,0.33-10.41-4.72-9.56-10.43c1.89-12.78,4.02-21.42,9.79-32.16c7.3-13.58,19.71-25.9,33.59-32.62    c10.32-4.99,22.02-6.66,33.47-6.13c19.38,0.9,38.8,8.38,52.16,22.45c14.2,14.97,20.45,35.89,22.67,56.4    c-30.08,4.76-60.71,1.45-91.16,1.45C572.54,178.22,559.75,178.25,542.32,179.26z">
                                </path>
                                <path d="M646.35,186.83c-8.98,0-17.9-0.28-26.71-0.56c-8.66-0.27-17.62-0.55-26.36-0.55c-21.54,0-33.58,0.05-50.53,1.02l0,0    c-5.02,0.29-9.84-1.67-13.23-5.38c-3.39-3.7-4.91-8.67-4.18-13.63c1.97-13.3,4.24-22.76,10.6-34.61    c8.16-15.19,21.97-28.58,36.94-35.82c10.61-5.13,23.43-7.5,37.08-6.87c22.43,1.05,43.3,10.08,57.25,24.78    c13.56,14.29,21.87,34.73,24.69,60.75c0.43,3.98-2.33,7.59-6.29,8.22C672.56,186.24,659.4,186.83,646.35,186.83z M593.28,170.72    c8.97,0,18.05,0.29,26.83,0.56c18.47,0.58,37.5,1.18,55.91-0.94c-3.06-19.2-9.67-34.25-19.69-44.81    c-11.31-11.92-28.46-19.25-47.06-20.12c-11.16-0.53-21.49,1.34-29.85,5.39c-12.23,5.91-23.54,16.91-30.25,29.42    c-5.35,9.96-7.22,17.82-8.98,29.71c-0.09,0.62,0.17,1.06,0.41,1.32c0.24,0.26,0.66,0.57,1.3,0.53l0,0    C559.22,170.77,572.06,170.72,593.28,170.72z">
                                </path>
                            </g>
                            <g>
                                <path d="M711.18,193.23c-1.48-0.59-3.06-1.35-4.72-2.15c-5.51-2.64-13.06-6.27-23.7-6.88l0.87-14.97    c13.59,0.79,23.06,5.33,29.33,8.33c1.49,0.72,2.78,1.33,3.79,1.74L711.18,193.23z">
                                </path>
                            </g>
                            <g>
                                <path d="M549.45,226.5c-8.64,0-15.89-6.46-16.87-15.05l-3.71-32.38l14.9-1.71l3.71,32.38c0.11,1,0.96,1.76,1.97,1.76c0,0,0,0,0,0    l29.72-0.07c-5.52-10.08-9.9-20.76-13.02-31.78l14.43-4.09c2.97,10.47,7.19,20.61,12.56,30.12c2.46,4.37,2.43,9.55-0.09,13.87    c-2.5,4.3-6.97,6.87-11.95,6.88l-31.61,0.08C549.48,226.5,549.47,226.5,549.45,226.5z">
                                </path>
                            </g>
                            <g>
                                <path d="M638.23,299.01c-15.62,0-30.52-4.35-47.09-13.42c-21.44-11.75-43.03-39.53-50.23-64.63l14.42-4.13    c5.35,18.68,22.91,44.59,43.02,55.6c20.58,11.28,37.29,14.02,57.65,9.49c0.99-0.22,3.32-0.74,4.21-1.45    c1.36-1.07,1.64-4.97,1.79-7.07c0.34-4.71,0.57-9.86,0.8-14.83c0.23-5.07,0.46-10.32,0.82-15.23c0.02-0.24,0.04-0.62,0.06-1    c-0.58,0.01-1.21,0.04-1.72,0.07c-0.71,0.04-1.43,0.07-2.14,0.09c-3.62,0.08-6.71,0.2-9.7,0.31c-8.62,0.33-15.44,0.59-26.46-0.51    c-15.25-1.53-31.77-9.74-43.11-21.43l10.77-10.45c8.85,9.12,22.14,15.78,33.84,16.95c9.99,1,16.03,0.77,24.39,0.45    c2.91-0.11,6.2-0.24,9.95-0.32c0.57-0.01,1.14-0.04,1.71-0.07c4.07-0.2,10.89-0.55,15.05,5.55c2.85,4.17,2.52,8.73,2.33,11.45    c-0.34,4.71-0.57,9.86-0.8,14.83c-0.23,5.07-0.46,10.32-0.82,15.23c-0.32,4.4-0.91,12.58-7.44,17.75    c-3.15,2.49-6.79,3.55-10.26,4.33C651.99,298.18,645.05,299.01,638.23,299.01z M663.66,241L663.66,241L663.66,241z">
                                </path>
                            </g>
                            <g>
                                <path d="M462.78,316.62c-5.3,12.11-12.45,23.65-22.38,32.38c-9.94,8.73-22.9,14.46-36.12,14.04c-9.18-0.3-19.06-4.32-22.89-12.67    c-3.01-6.54-1.67-14.34,1.39-20.85c2.39-5.07,5.73-9.61,8.94-14.22c-3.47-4.3-10.85-6.34-15.63-9.04    c-4.87-2.76-9.45-4.94-9.13-10.53c0.28-4.97,4.54-8.77,8.86-11.26c4.31-2.49,10.57-5.44,13.72-9.3c2.16-3.2,5.06-7.36,7.08-11.16    c1.37-2.56,3.92-4.16,6.79-4.57c1.45-0.21,2.87-0.79,4.41-1.72c3.08-1.84,5.55-2.98,9.05-3.75c4.72-1.04,9.64,0.92,13.53,3.77    c3.89,2.86,7.06,6.57,10.71,9.74c8.92,7.75,21.29,13.05,25.09,24.24C468.96,299.84,466.22,308.76,462.78,316.62z">
                                </path>
                                <path d="M405.6,370.56c-0.52,0-1.04-0.01-1.55-0.02c-10.63-0.35-23.95-5.01-29.47-17.04c-3.62-7.87-3.12-17.52,1.42-27.17    c1.57-3.33,3.44-6.37,5.39-9.27c-1.1-0.54-2.25-1.05-3.3-1.52c-1.9-0.85-3.88-1.73-5.68-2.75l-0.9-0.51    c-5.01-2.81-12.59-7.07-12.03-16.98c0.38-6.8,4.74-12.8,12.6-17.33c0.85-0.49,1.78-1.01,2.75-1.54c3.13-1.72,7-3.85,8.73-5.8    l0.6-0.89c1.9-2.79,4.26-6.27,5.84-9.25c2.48-4.63,6.97-7.71,12.35-8.48c0.2-0.03,0.68-0.16,1.59-0.71    c3.46-2.07,6.69-3.64,11.32-4.66c6.29-1.39,13.24,0.41,19.57,5.04c2.79,2.05,5.11,4.32,7.36,6.52c1.32,1.29,2.57,2.51,3.84,3.61    c2.31,2.01,4.96,3.89,7.77,5.88c7.51,5.33,16.03,11.37,19.5,21.61c3.77,11.09-0.28,22.61-3.65,30.32h0    c-6.44,14.71-14.62,26.49-24.3,35.01C433.77,364.81,419.36,370.56,405.6,370.56z M374.44,296.32c0.54,0.71,2.85,2.01,4.39,2.88    l0.95,0.53c1.18,0.66,2.74,1.36,4.4,2.1c4.62,2.06,9.85,4.39,13.37,8.75c2.09,2.59,2.22,6.26,0.32,9l-1.17,1.67    c-2.73,3.9-5.31,7.58-7.14,11.46c-2.58,5.49-3.08,10.79-1.36,14.52c2.5,5.46,10,8.1,16.32,8.31c10.47,0.33,21.74-4.11,30.93-12.18    c8.02-7.05,14.91-17.06,20.46-29.75c3.82-8.73,4.8-14.74,3.19-19.48c-1.92-5.64-7.78-9.8-13.98-14.2    c-2.98-2.11-6.06-4.3-8.93-6.79c-1.6-1.39-3.07-2.82-4.48-4.21c-1.96-1.92-3.81-3.73-5.75-5.15c-2.71-1.99-5.51-2.92-7.47-2.49    c-2.4,0.53-4.12,1.25-6.82,2.86c-2.43,1.47-4.79,2.36-7.19,2.7c-0.23,0.03-0.97,0.18-1.25,0.69c-1.95,3.67-4.56,7.52-6.66,10.61    l-0.82,1.21c-0.13,0.19-0.26,0.37-0.41,0.54c-3.47,4.26-8.91,7.25-13.29,9.66c-0.88,0.48-1.72,0.94-2.49,1.39    c-3.69,2.13-5.06,4.12-5.12,5.19C374.44,296.23,374.44,296.28,374.44,296.32z">
                                </path>
                            </g>
                            <g>
                                <path d="M366.95,293.93c-34.53-18.29-68.93-39.91-86.62-73.96c-0.57-1.09-1.12-2.2-1.65-3.32c-4.73-9.93-4.44-21.19,0.78-30.89    c5.28-9.81,14.64-16.33,25.68-17.88c41.11-5.76,83.51-2.04,122.63,10.77c6.83,2.24,13.61,4.76,20.17,7.2    c11.22,4.18,21.82,8.12,32.9,10.87c19.97,4.95,37.07,4.46,50.84-1.46l5.93,13.78c-16.84,7.24-37.15,8-60.37,2.24    c-11.91-2.95-23.41-7.23-34.53-11.37c-6.42-2.39-13.06-4.86-19.6-7c-36.96-12.1-77.03-15.62-115.88-10.17    c-6.26,0.88-11.57,4.57-14.56,10.13c-2.93,5.45-3.1,11.77-0.45,17.34c0.46,0.96,0.93,1.91,1.42,2.85    c16.59,31.92,50.16,51.64,80.33,67.62L366.95,293.93z">
                                </path>
                            </g>
                            <g>
                                <path d="M398.42,263.96c-13.36-20.13-29.12-38.67-46.83-55.1l10.2-11c18.58,17.24,35.11,36.69,49.13,57.8L398.42,263.96z">
                                </path>
                            </g>
                            <g>
                                <path d="M615.45,426.44l-11.56-9.56c9.11-11.02,14.05-18.88,18.84-26.49c5.26-8.37,10.24-16.27,19.78-27.02    c8.85-9.96,14.23-23.16,14.75-36.21c0.46-11.53-9.22-26.36-22.37-28.22l2.09-14.85c21.68,3.06,35.99,25.47,35.27,43.67    c-0.65,16.45-7.4,33.06-18.52,45.57c-8.72,9.82-13.16,16.87-18.3,25.04C630.62,406.01,625.17,414.67,615.45,426.44z">
                                </path>
                            </g>
                            <g>
                                <path d="M570.9,517.3l-14.14-5.02c4.32-12.18,10.07-24.82,15.75-34.67l12.99,7.5C580.25,494.21,574.93,505.94,570.9,517.3z">
                                </path>
                            </g>
                            <g>
                                <path d="M557.52,383.36l-13.15-7.22c10.6-19.29,16.47-26.13,28.75-36.88l9.88,11.28C571.87,360.29,567.17,365.79,557.52,383.36z">
                                </path>
                            </g>
                            <g>
                                <path d="M501.58,413.43l30.23-37.15c3.31-4.07,9.21-4.87,13.49-1.84l270.28,191.63c7.9,5.6,9.73,16.57,4.06,24.43l-20.75,28.79    c-5.63,7.82-16.54,9.59-24.36,3.95L503.48,427.79C498.83,424.44,497.96,417.87,501.58,413.43z">
                                </path>
                                <path d="M784.69,634.04c-5.19,0-10.24-1.62-14.54-4.72L499.09,433.88c-3.88-2.8-6.47-7.13-7.1-11.87    c-0.63-4.75,0.75-9.6,3.77-13.31l30.23-37.15c5.78-7.11,16.17-8.52,23.64-3.22l270.28,191.63c5.46,3.87,9.08,9.65,10.18,16.26    c1.1,6.61-0.45,13.24-4.37,18.68l-20.75,28.79c-3.9,5.41-9.67,8.97-16.24,10.04C787.38,633.93,786.03,634.04,784.69,634.04z     M539.54,380.1c-0.72,0-1.43,0.31-1.91,0.91l-30.23,37.15l0,0c-0.58,0.72-0.58,1.48-0.53,1.88c0.05,0.39,0.25,1.13,1,1.67    l271.06,195.45c2.15,1.55,4.79,2.17,7.41,1.75c2.62-0.43,4.92-1.85,6.48-4l20.75-28.79c1.56-2.17,2.18-4.81,1.74-7.45    c-0.44-2.63-1.88-4.94-4.06-6.48L540.96,380.56C540.53,380.25,540.03,380.1,539.54,380.1z">
                                </path>
                            </g>
                            <g>
                                <path d="M530.86,496.21c-6.38,0-12.83-2.2-18.01-6.18c-10.65-8.21-15.51-14.12-26.15-27.07l-2.47-3    c-2.58-3.13-5.13-6.68-7.83-10.44c-2.68-3.73-5.45-7.58-8.19-10.92l11.58-9.53c3.06,3.72,5.98,7.78,8.8,11.7    c2.55,3.55,4.97,6.91,7.23,9.66l2.48,3.01c10.49,12.77,14.42,17.55,23.72,24.71c2.83,2.18,6.53,3.31,9.9,3.02    c5.19-0.44,9.04-3.85,15.39-9.84c2.99-2.81,6.37-6,10.39-9.08l9.12,11.91c-3.41,2.61-6.36,5.39-9.22,8.08    c-6.76,6.37-13.75,12.96-24.4,13.86C532.41,496.18,531.64,496.21,530.86,496.21z">
                                </path>
                            </g>
                            <g>
                                <path d="M496.43,365.95c-0.32,3.47-1.3,6.94-2.56,10.21c-1.16,3.05-2.58,6-3.94,8.98c-1.38,3-2.71,6.01-3.7,9.14    c-2.56,8.11-2.75,16.87-0.53,25.08c1.14,4.21,2.92,8.68-1.23,12.65c-1.14,1.09-2.55,1.92-4.08,2.43c-4.38,1.49-9,0.76-13.44-0.08    c-8.22-1.55-16.46-3.5-23.92-7.14c-7.45-3.65-14.14-9.14-17.73-16.33c-3.92-7.85-3.86-16.99-2.24-25.53    c3.08-16.19,11.64-31.39,25.22-42.61c3.69-3.05,8.52-4.58,13.39-4.19c5.73,0.46,11.42,1.25,16.79,3.16    c7.59,2.7,14.57,8.03,17.04,15.36C496.46,359.95,496.69,362.95,496.43,365.95z">
                                </path>
                                <path d="M474.84,442.8c-3.19,0-6.3-0.51-9.29-1.07c-7.98-1.51-17.3-3.61-25.81-7.77c-6.83-3.34-16.04-9.47-21.15-19.72    c-4.16-8.33-5.13-18.52-2.89-30.29c3.49-18.37,13.37-35.06,27.81-46.99c5.18-4.28,12.02-6.43,18.77-5.88    c5.2,0.42,12.02,1.2,18.7,3.57c10.75,3.83,18.64,11.13,21.64,20.03c1.23,3.67,1.66,7.68,1.29,11.93c0,0.01,0,0.02,0,0.03    c-0.35,3.85-1.35,7.85-3.03,12.23c-1.01,2.66-2.19,5.21-3.32,7.68l-0.79,1.71c-1.17,2.53-2.47,5.44-3.38,8.3    c-2.14,6.78-2.3,13.99-0.44,20.85c0.09,0.34,0.19,0.69,0.29,1.04c1.21,4.28,3.47,12.25-3.57,18.98c-1.9,1.82-4.27,3.25-6.87,4.12    C480.09,442.46,477.43,442.8,474.84,442.8z M460.17,345.99c-2.6,0-5.15,0.9-7.12,2.53c-11.75,9.71-19.79,23.29-22.63,38.24    c-1.61,8.47-1.08,15.46,1.58,20.78c2.53,5.07,7.62,9.66,14.32,12.94c6.89,3.36,14.65,5.11,22.01,6.5    c3.75,0.71,7.06,1.23,9.64,0.35c0.53-0.18,0.98-0.44,1.3-0.74c0.23-0.22,0.29-0.33,0.29-0.34c0.12-0.55-0.44-2.54-0.78-3.73    c-0.11-0.4-0.23-0.8-0.34-1.2c-2.61-9.64-2.39-19.77,0.62-29.3c1.17-3.69,2.7-7.1,4.04-10.02l0.8-1.74    c1.08-2.34,2.1-4.55,2.94-6.76c1.18-3.05,1.88-5.81,2.1-8.22c0.19-2.21,0-4.12-0.57-5.84c-1.49-4.43-6.15-8.43-12.45-10.67    c-5.02-1.78-10.59-2.41-14.87-2.75C460.77,346,460.47,345.99,460.17,345.99z">
                                </path>
                            </g>
                            <g>
                                <rect height="34.77" width="15" transform="matrix(0.6024 -0.7982 0.7982 0.6024 -106.3226 555.4164)" y="367.04" x="496.8"/>
                            </g>
                        </g>
                    </svg></svg>
                <defs>
                    <filter id="colors1208038752">
                        <feColorMatrix class="icon-fecolormatrix" values="0 0 0 0 0.99609375  0 0 0 0 0.99609375  0 0 0 0 0.99609375  0 0 0 1 0" type="matrix"/>
                    </filter>
                    <filter id="colorsf1386122795">
                        <feColorMatrix class="icon-fecolormatrix" values="0 0 0 0 0.99609375  0 0 0 0 0.99609375  0 0 0 0 0.99609375  0 0 0 1 0" type="matrix"/>
                    </filter>
                    <filter id="colorsb5995609336">
                        <feColorMatrix class="icon-fecolormatrix" values="0 0 0 0 0  0 0 0 0 0  0 0 0 0 0  0 0 0 1 0" type="matrix"/>
                    </filter>
                </defs>
            </g>
        </g>
        <g transform="translate(40.46499443054199,2.0817298889160156)">
            <g opacity="1" transform="matrix(1,0,0,1,0,0)" fill-rule="" data-gra="path-name">
                <g transform="scale(1)">
                    <g>
                        <path transform="translate(-0.5099999904632568, 31.84000015258789)" d="M21.86-7.62L20.52-1.11Q18.58-0.32 16.43 0.02 14.28 0.37 11.55 0.37L11.55 0.37Q9.15 0.37 7.14-0.12 5.13-0.6 3.65-1.66 2.17-2.73 1.34-4.41 0.51-6.1 0.51-8.5L0.51-8.5Q0.51-11 1.36-13.15 2.22-15.29 3.95-16.91 5.68-18.53 8.36-19.45 11.04-20.38 14.74-20.38L14.74-20.38Q17.74-20.38 19.96-19.89 22.18-19.41 23.61-17.7L23.61-17.7 22.32-11.78 16.03-11.78Q16.08-12.57 16.13-13.17 16.17-13.77 16.17-14.51L16.17-14.51Q16.17-15.99 15.85-16.61 15.53-17.24 14.79-17.24L14.79-17.24Q13.49-17.24 12.52-15.96 11.55-14.69 10.93-12.92 10.3-11.14 10-9.17 9.7-7.21 9.7-5.82L9.7-5.82Q9.7-5.31 9.75-4.78 9.8-4.25 9.96-3.79 10.12-3.33 10.4-3.05 10.67-2.77 11.18-2.77L11.18-2.77Q11.64-2.77 12.25-3.05 12.85-3.33 13.4-3.9 13.95-4.48 14.46-5.41 14.97-6.33 15.25-7.62L15.25-7.62 21.86-7.62ZM23.61 0L27.82-19.87 35.35-19.87 36.04-16.4 36.37-16.4Q37.43-18.07 39.09-19.22 40.76-20.38 43.48-20.38L43.48-20.38Q43.67-20.38 44.06-20.35 44.45-20.33 44.94-20.22 45.42-20.1 45.95-19.89 46.49-19.68 46.99-19.32L46.99-19.32 44.96-9.8 39.92-9.8Q39.83-12.66 39.42-13.79 39-14.93 38.08-14.93L38.08-14.93Q37.61-14.93 37.08-14.72 36.55-14.51 36-13.82L36-13.82 33.04 0 23.61 0ZM59.61-19.87L55.31 0 45.93 0 50.14-19.87 59.61-19.87ZM60.81-25.92L60.81-25.92Q60.81-24.86 60.37-24.07 59.93-23.29 59.22-22.73 58.5-22.18 57.58-21.9 56.65-21.63 55.68-21.63L55.68-21.63Q53.83-21.63 52.58-22.5 51.34-23.38 51.34-25.28L51.34-25.28Q51.34-26.29 51.75-27.1 52.17-27.91 52.89-28.44 53.6-28.97 54.55-29.25 55.5-29.53 56.51-29.53L56.51-29.53Q58.31-29.53 59.56-28.65 60.81-27.77 60.81-25.92ZM81.79-7.62L80.45-1.11Q78.51-0.32 76.36 0.02 74.21 0.37 71.48 0.37L71.48 0.37Q69.08 0.37 67.07-0.12 65.06-0.6 63.58-1.66 62.1-2.73 61.27-4.41 60.44-6.1 60.44-8.5L60.44-8.5Q60.44-11 61.3-13.15 62.15-15.29 63.88-16.91 65.62-18.53 68.3-19.45 70.98-20.38 74.67-20.38L74.67-20.38Q77.68-20.38 79.89-19.89 82.11-19.41 83.54-17.7L83.54-17.7 82.25-11.78 75.97-11.78Q76.01-12.57 76.06-13.17 76.1-13.77 76.1-14.51L76.1-14.51Q76.1-15.99 75.78-16.61 75.46-17.24 74.72-17.24L74.72-17.24Q73.42-17.24 72.45-15.96 71.48-14.69 70.86-12.92 70.24-11.14 69.94-9.17 69.64-7.21 69.64-5.82L69.64-5.82Q69.64-5.31 69.68-4.78 69.73-4.25 69.89-3.79 70.05-3.33 70.33-3.05 70.61-2.77 71.11-2.77L71.11-2.77Q71.58-2.77 72.18-3.05 72.78-3.33 73.33-3.9 73.89-4.48 74.4-5.41 74.9-6.33 75.18-7.62L75.18-7.62 81.79-7.62ZM104.2-14.05L98.19-14.05Q98.24-14.28 98.28-14.51 98.33-14.74 98.33-15.02L98.33-15.02Q98.33-15.85 98.03-16.57 97.73-17.28 96.85-17.28L96.85-17.28Q96.07-17.28 95.28-16.61 94.5-15.94 94.5-14.83L94.5-14.83Q94.5-14.09 94.89-13.65 95.28-13.22 95.93-12.94 96.58-12.66 97.38-12.48 98.19-12.29 98.98-12.11L98.98-12.11Q100.09-11.83 101.08-11.44 102.07-11.04 102.86-10.4 103.65-9.75 104.11-8.8 104.57-7.86 104.57-6.47L104.57-6.47Q104.57-4.53 103.67-3.21 102.77-1.89 101.17-1.09 99.58-0.28 97.43 0.05 95.28 0.37 92.83 0.37L92.83 0.37Q89.09 0.37 86.64-0.18 84.19-0.74 83.22-1.25L83.22-1.25 84.19-5.87 90.43-5.87Q90.38-5.64 90.38-5.43 90.38-5.22 90.38-4.99L90.38-4.99Q90.38-3.93 90.87-3.3 91.35-2.68 92.56-2.68L92.56-2.68Q93.9-2.68 94.47-3.44 95.05-4.2 95.05-4.85L95.05-4.85Q95.05-5.5 94.57-5.98 94.08-6.47 93.34-6.82 92.6-7.16 91.7-7.42 90.8-7.67 89.97-7.9L89.97-7.9Q89.37-8.04 88.6-8.36 87.84-8.69 87.15-9.29 86.46-9.89 85.99-10.84 85.53-11.78 85.53-13.22L85.53-13.22Q85.53-15.25 86.52-16.61 87.52-17.97 89.11-18.81 90.71-19.64 92.72-20.01 94.73-20.38 96.76-20.38L96.76-20.38Q99.3-20.38 101.57-19.92 103.83-19.45 105.26-18.71L105.26-18.71 104.2-14.05ZM119.73-19.87L115.43 0 106.05 0 110.25-19.87 119.73-19.87ZM120.93-25.92L120.93-25.92Q120.93-24.86 120.49-24.07 120.05-23.29 119.33-22.73 118.62-22.18 117.69-21.9 116.77-21.63 115.8-21.63L115.8-21.63Q113.95-21.63 112.7-22.5 111.45-23.38 111.45-25.28L111.45-25.28Q111.45-26.29 111.87-27.1 112.29-27.91 113-28.44 113.72-28.97 114.67-29.25 115.61-29.53 116.63-29.53L116.63-29.53Q118.43-29.53 119.68-28.65 120.93-27.77 120.93-25.92ZM132.16-16.91L132.43-16.91Q133.4-17.84 134.6-18.62L134.6-18.62Q135.67-19.27 137.1-19.82 138.53-20.38 140.29-20.38L140.29-20.38Q142.69-20.38 144.26-19.15 145.83-17.93 145.83-15.8L145.83-15.8Q145.83-15.2 145.69-14.35 145.56-13.49 145.37-12.57 145.19-11.64 144.98-10.7 144.77-9.75 144.63-9.01L144.63-9.01 142.69 0 133.31 0 135.85-12.06Q135.94-12.66 136.08-13.28 136.22-13.91 136.22-14.42L136.22-14.42Q136.22-15.11 135.88-15.55 135.53-15.99 134.84-15.99L134.84-15.99Q134-15.99 133.24-15.39 132.48-14.79 132.06-14.37L132.06-14.37 129.01 0 119.59 0 123.79-19.87 131.32-19.87 132.16-16.91ZM148.42-16.77L149.11-19.87 152.67-19.87 153.09-21.76Q153.69-24.54 154.84-26.45 156-28.37 157.59-29.57 159.19-30.77 161.22-31.31 163.25-31.84 165.56-31.84L165.56-31.84Q167-31.84 168.61-31.65 170.23-31.47 171.99-31.05L171.99-31.05 171.25-27.36Q170.23-27.49 169.08-27.56 167.92-27.63 167.23-27.63L167.23-27.63Q166.3-27.63 165.63-27.49 164.96-27.36 164.46-26.96 163.95-26.57 163.58-25.88 163.21-25.18 162.98-24.03L162.98-24.03 162.1-19.87 166.95-19.87 166.35-16.77 161.45-16.77 157.89 0 148.47 0 152.03-16.77 148.42-16.77ZM179.75-20.38L179.75-20.38Q185.25-20.38 187.74-18.44L187.74-18.44Q190.38-16.4 190.38-11.69L190.38-11.69Q190.38-8.78 189.41-6.45 188.44-4.11 186.68-2.59L186.68-2.59Q183.17 0.37 176.52 0.37L176.52 0.37Q170.83 0.37 168.38-1.8L168.38-1.8Q165.75-4.07 165.75-8.59L165.75-8.59Q165.75-11.6 166.97-14.05 168.2-16.5 170.51-18.11L170.51-18.11Q173.88-20.38 179.75-20.38ZM176.61-2.77L176.61-2.77Q177.76-2.77 178.62-4.07 179.47-5.36 179.98-7.23 180.49-9.1 180.74-11.11 181-13.12 181-14.6L181-14.6Q181-15.9 180.74-16.57 180.49-17.24 179.66-17.24L179.66-17.24Q178.41-17.24 177.51-15.9 176.61-14.56 176.05-12.71 175.5-10.86 175.24-8.92 174.99-6.98 174.99-5.78L174.99-5.78Q174.99-2.77 176.61-2.77Z"/>
                    </g>       
                </g>
            </g>
            <g opacity="1" transform="matrix(0.985859671875,0,0,0.985859671875,147.51357078027763,37.29371364274874)" fill="#FFFFFF" fill-rule="" data-gra="path-slogan">
                 
                <g mask="url(#89fc3f9a-6250-4ac5-944b-568902ba71bd)">
                    <g>
                        <rect fill-opacity="1" height="11.84000015258789" width="39.39999961853027" y="0" x="0" stroke-width="2" data-gra="graph-name-bg"/>
                         
                    </g>
                    <g transform="translate(5,2)">
                        <g fill="#0f235a" transform="scale(1, 1)">
                            <g transform="scale(1)">
                                <path transform="translate(0, 7.74)" d="M2.44-1.06L2.44-1.06Q2.44-0.78 2.32-0.56Q2.21-0.35 2.02-0.20Q1.84-0.06 1.60 0.02Q1.36 0.10 1.09 0.10L1.09 0.10Q0.64 0.10 0.32-0.15Q0-0.40 0-0.92L0-0.92Q0-1.20 0.11-1.42Q0.22-1.63 0.40-1.78Q0.58-1.92 0.81-2.00Q1.04-2.08 1.30-2.08L1.30-2.08Q1.79-2.08 2.11-1.83Q2.44-1.58 2.44-1.06ZM10.32-2.92L9.84-0.65Q9.54-0.50 9.22-0.37Q8.90-0.23 8.54-0.13Q8.18-0.02 7.76 0.04Q7.33 0.10 6.83 0.10L6.83 0.10Q5.22 0.10 4.35-0.62Q3.48-1.34 3.48-3.02L3.48-3.02Q3.48-4.00 3.78-4.85Q4.08-5.71 4.67-6.35Q5.26-7.00 6.12-7.37Q6.98-7.74 8.10-7.74L8.10-7.74Q8.63-7.74 9.07-7.67Q9.50-7.60 9.86-7.48Q10.21-7.37 10.49-7.24Q10.78-7.10 11.00-6.98L11.00-6.98L10.57-4.75L8.41-4.75Q8.42-4.87 8.44-5.06Q8.46-5.26 8.47-5.45Q8.48-5.65 8.50-5.84Q8.51-6.04 8.51-6.17L8.51-6.17Q8.51-6.26 8.50-6.39Q8.48-6.52 8.44-6.64Q8.39-6.76 8.29-6.83Q8.18-6.91 8.02-6.91L8.02-6.91Q7.70-6.91 7.45-6.65Q7.19-6.40 6.98-5.97Q6.78-5.54 6.62-5.00Q6.47-4.46 6.37-3.91Q6.26-3.35 6.21-2.81Q6.16-2.27 6.16-1.86L6.16-1.86Q6.16-1.74 6.17-1.56Q6.18-1.38 6.24-1.21Q6.30-1.04 6.43-0.92Q6.55-0.80 6.77-0.80L6.77-0.80Q7.14-0.80 7.49-1.27Q7.84-1.73 8.10-2.92L8.10-2.92L10.32-2.92ZM15.67-7.74L15.67-7.74Q16.70-7.74 17.35-7.48Q17.99-7.21 18.36-6.66L18.36-6.66Q18.60-6.29 18.73-5.82Q18.86-5.35 18.86-4.74L18.86-4.74Q18.86-4.21 18.77-3.68Q18.67-3.16 18.50-2.67Q18.32-2.18 18.08-1.76Q17.83-1.33 17.53-1.01L17.53-1.01Q16.97-0.40 16.23-0.15Q15.49 0.10 14.41 0.10L14.41 0.10Q13.37 0.10 12.73-0.12Q12.10-0.34 11.72-0.82L11.72-0.82Q11.46-1.15 11.31-1.67Q11.16-2.18 11.16-2.96L11.16-2.96Q11.16-4.30 11.63-5.35Q12.11-6.40 12.98-7.01L12.98-7.01Q13.51-7.38 14.16-7.56Q14.81-7.74 15.67-7.74ZM14.32-0.74L14.32-0.74Q14.59-0.74 14.84-0.99Q15.08-1.24 15.29-1.65Q15.50-2.06 15.68-2.59Q15.85-3.12 15.97-3.68Q16.09-4.25 16.16-4.81Q16.22-5.36 16.22-5.82L16.22-5.82Q16.22-6.44 16.10-6.68Q15.97-6.91 15.73-6.91L15.73-6.91Q15.46-6.91 15.20-6.67Q14.95-6.43 14.73-6.03Q14.51-5.63 14.33-5.11Q14.16-4.58 14.03-4.03Q13.91-3.48 13.84-2.94Q13.78-2.40 13.78-1.94L13.78-1.94Q13.78-1.26 13.93-1.00Q14.08-0.74 14.32-0.74ZM29.40-7.62L27.77 0L25.10 0L26.21-5.18L23.36 0L21.73 0L21.19-5.36L20.04 0L18.96 0L20.58-7.62L23.64-7.62L24.01-3.32L26.32-7.62L29.40-7.62Z"/>
                            </g>
                        </g>
                    </g>
                </g>
            </g>
        </g>
    </g>
    <mask>
        <g fill="white">
            <rect fill-opacity="1" height="11.84000015258789" width="39.39999961853027" y="0" x="0" stroke-width="2" data-gra="graph-name-bg"/>
        </g>
        <g fill="black" transform="translate(5,2)">
            <g transform="scale(1, 1)">
                <g transform="scale(1)">
                    <path transform="translate(0, 7.74)" d="M2.44-1.06L2.44-1.06Q2.44-0.78 2.32-0.56Q2.21-0.35 2.02-0.20Q1.84-0.06 1.60 0.02Q1.36 0.10 1.09 0.10L1.09 0.10Q0.64 0.10 0.32-0.15Q0-0.40 0-0.92L0-0.92Q0-1.20 0.11-1.42Q0.22-1.63 0.40-1.78Q0.58-1.92 0.81-2.00Q1.04-2.08 1.30-2.08L1.30-2.08Q1.79-2.08 2.11-1.83Q2.44-1.58 2.44-1.06ZM10.32-2.92L9.84-0.65Q9.54-0.50 9.22-0.37Q8.90-0.23 8.54-0.13Q8.18-0.02 7.76 0.04Q7.33 0.10 6.83 0.10L6.83 0.10Q5.22 0.10 4.35-0.62Q3.48-1.34 3.48-3.02L3.48-3.02Q3.48-4.00 3.78-4.85Q4.08-5.71 4.67-6.35Q5.26-7.00 6.12-7.37Q6.98-7.74 8.10-7.74L8.10-7.74Q8.63-7.74 9.07-7.67Q9.50-7.60 9.86-7.48Q10.21-7.37 10.49-7.24Q10.78-7.10 11.00-6.98L11.00-6.98L10.57-4.75L8.41-4.75Q8.42-4.87 8.44-5.06Q8.46-5.26 8.47-5.45Q8.48-5.65 8.50-5.84Q8.51-6.04 8.51-6.17L8.51-6.17Q8.51-6.26 8.50-6.39Q8.48-6.52 8.44-6.64Q8.39-6.76 8.29-6.83Q8.18-6.91 8.02-6.91L8.02-6.91Q7.70-6.91 7.45-6.65Q7.19-6.40 6.98-5.97Q6.78-5.54 6.62-5.00Q6.47-4.46 6.37-3.91Q6.26-3.35 6.21-2.81Q6.16-2.27 6.16-1.86L6.16-1.86Q6.16-1.74 6.17-1.56Q6.18-1.38 6.24-1.21Q6.30-1.04 6.43-0.92Q6.55-0.80 6.77-0.80L6.77-0.80Q7.14-0.80 7.49-1.27Q7.84-1.73 8.10-2.92L8.10-2.92L10.32-2.92ZM15.67-7.74L15.67-7.74Q16.70-7.74 17.35-7.48Q17.99-7.21 18.36-6.66L18.36-6.66Q18.60-6.29 18.73-5.82Q18.86-5.35 18.86-4.74L18.86-4.74Q18.86-4.21 18.77-3.68Q18.67-3.16 18.50-2.67Q18.32-2.18 18.08-1.76Q17.83-1.33 17.53-1.01L17.53-1.01Q16.97-0.40 16.23-0.15Q15.49 0.10 14.41 0.10L14.41 0.10Q13.37 0.10 12.73-0.12Q12.10-0.34 11.72-0.82L11.72-0.82Q11.46-1.15 11.31-1.67Q11.16-2.18 11.16-2.96L11.16-2.96Q11.16-4.30 11.63-5.35Q12.11-6.40 12.98-7.01L12.98-7.01Q13.51-7.38 14.16-7.56Q14.81-7.74 15.67-7.74ZM14.32-0.74L14.32-0.74Q14.59-0.74 14.84-0.99Q15.08-1.24 15.29-1.65Q15.50-2.06 15.68-2.59Q15.85-3.12 15.97-3.68Q16.09-4.25 16.16-4.81Q16.22-5.36 16.22-5.82L16.22-5.82Q16.22-6.44 16.10-6.68Q15.97-6.91 15.73-6.91L15.73-6.91Q15.46-6.91 15.20-6.67Q14.95-6.43 14.73-6.03Q14.51-5.63 14.33-5.11Q14.16-4.58 14.03-4.03Q13.91-3.48 13.84-2.94Q13.78-2.40 13.78-1.94L13.78-1.94Q13.78-1.26 13.93-1.00Q14.08-0.74 14.32-0.74ZM29.40-7.62L27.77 0L25.10 0L26.21-5.18L23.36 0L21.73 0L21.19-5.36L20.04 0L18.96 0L20.58-7.62L23.64-7.62L24.01-3.32L26.32-7.62L29.40-7.62Z"/>
                </g>
            </g>
        </g>
    </mask>
</svg>